<svg width="25" height="29" fill="none" xmlns="http://www.w3.org/2000/svg"><path d="M19.643 7.25C19.643 3.252 16.439 0 12.5 0 8.561 0 5.357 3.252 5.357 7.25H0v17.219C0 26.97 1.999 29 4.464 29h16.072C23 29 25 26.971 25 24.469V7.25h-5.357zM12.5 1.812c2.954 0 5.357 2.44 5.357 5.438H7.143c0-2.998 2.403-5.438 5.357-5.438zM23.214 24.47c0 1.499-1.201 2.718-2.678 2.718H4.464c-1.477 0-2.678-1.22-2.678-2.718V9.062h3.571v2.72c0 .5.4.905.893.905a.9.9 0 00.893-.906V9.062h10.714v2.72c0 .5.4.905.893.905a.9.9 0 00.893-.906V9.062h3.571V24.47z" fill="#4D4D4D"/></svg>