<svg width="30" height="24" fill="none" xmlns="http://www.w3.org/2000/svg"><g clip-path="url(#clip0_151_684)"><path d="M29.737 13.082l-5.111-8.248A.748.748 0 0024 4.5a.748.748 0 00-.626.334l-5.112 8.248a1.456 1.456 0 00-.258.921A6.01 6.01 0 0024 19.5a6.01 6.01 0 005.995-5.497 1.457 1.457 0 00-.258-.92zM24 18c-1.95 0-3.636-1.272-4.256-3h8.494c-.629 1.745-2.303 3-4.238 3zm-4.232-4.5l4.234-6.832 4.262 6.832h-8.496zm5.357 9H15.75V5.894A2.993 2.993 0 0018 3h7.125a.375.375 0 00.375-.375v-.75a.375.375 0 00-.375-.375h-7.552c-.007-.012-.205-.52-.896-.988A2.986 2.986 0 0015 0c-.621 0-1.199.189-1.678.512-.69.467-.888.976-.895.988H4.875a.375.375 0 00-.375.375v.75c0 .207.168.375.375.375H12c0 1.396.958 2.56 2.25 2.894V22.5H4.875a.375.375 0 00-.375.375v.75c0 .207.168.375.375.375h20.25a.375.375 0 00.375-.375v-.75a.375.375 0 00-.375-.375zM13.5 3a1.5 1.5 0 113 0 1.5 1.5 0 01-3 0zm-1.505 11.003a1.456 1.456 0 00-.258-.92l-5.112-8.25A.748.748 0 006 4.5a.748.748 0 00-.626.334L.262 13.082a1.456 1.456 0 00-.258.921A6.01 6.01 0 006 19.5a6.01 6.01 0 005.995-5.497zM6.002 6.668l4.262 6.832H1.768l4.234-6.832zM1.744 15h8.494C9.61 16.745 7.935 18 6 18c-1.95 0-3.635-1.272-4.256-3z" fill="#4D4D4D"/></g><defs><clipPath id="clip0_151_684"><path fill="#fff" d="M0 0h30v24H0z"/></clipPath></defs></svg>