<svg width="249" height="63" fill="none" xmlns="http://www.w3.org/2000/svg"><path d="M43.083 16.525a19.235 19.235 0 00-7.642 1.541 19.145 19.145 0 00-6.391 4.445 21.145 21.145 0 013.035-.223 20.767 20.767 0 0112.767 4.245 20.578 20.578 0 017.442 11.158c1.16 4.44.797 9.139-1.034 13.35a20.624 20.624 0 01-9.07 9.893 30.461 30.461 0 0012.16-7.758 30.24 30.24 0 007.194-12.46c.043-.137.078-.277.106-.418a18.94 18.94 0 00.2-8.601 18.996 18.996 0 00-3.626-7.812 19.128 19.128 0 00-6.712-5.426 19.231 19.231 0 00-8.429-1.934z" fill="url(#paint0_radial_151_714)"/><path d="M48.763 45.008a16.77 16.77 0 00-4.771-11.715 20.57 20.57 0 01-5.365 6.166 20.895 20.895 0 01-7.374 3.625 21.071 21.071 0 01-8.223.515 20.973 20.973 0 01-7.779-2.677 20.68 20.68 0 01-6.112-5.448 20.363 20.363 0 01-3.485-7.362 20.213 20.213 0 01-.31-8.12 20.318 20.318 0 012.915-7.599A29.925 29.925 0 001.31 27.818c-.777 5.69.11 11.48 2.557 16.689A30.257 30.257 0 0015.126 57.22a30.863 30.863 0 0016.425 4.747h.895a17.303 17.303 0 0011.595-5.264 16.834 16.834 0 004.722-11.695z" fill="url(#paint1_radial_151_714)"/><path d="M22.177 38.213a22.412 22.412 0 01-.198-2.992 22.79 22.79 0 013.688-12.485 22.764 22.764 0 019.918-8.425 22.74 22.74 0 0124.59 4.116A30.445 30.445 0 0041.224 2.256a30.401 30.401 0 00-24.671 3.412 17.927 17.927 0 00-3.356 27.401 17.896 17.896 0 008.98 5.144z" fill="url(#paint2_radial_151_714)"/><path d="M97.028 8.582c-1.697-1.522-4.367-2.351-8.01-2.351a40.82 40.82 0 00-7.25.581v28.179h3.744V23.37c1.031.196 2.082.28 3.131.247 3.606 0 6.775-1.04 8.734-3.106a8.18 8.18 0 001.749-2.798 8.134 8.134 0 00.497-3.254 7.57 7.57 0 00-.598-3.21 7.623 7.623 0 00-1.897-2.668h-.1zm-8.247 12.09a14.02 14.02 0 01-3.22-.284V9.423c1.2-.23 2.422-.329 3.644-.297 4.067 0 6.737 1.807 6.737 5.545 0 3.737-2.707 6.002-7.161 6.002zm21.335-6.373c-5.627 0-10.144 3.985-10.144 10.791 0 6.41 4.305 10.445 9.807 10.445 4.866 0 10.156-3.28 10.156-10.828 0-6.188-3.98-10.408-9.857-10.408h.038zm-.2 18.464c-3.593 0-6.138-3.353-6.138-7.796 0-3.861 1.909-7.896 6.238-7.896 4.329 0 6.139 4.332 6.139 7.772 0 4.604-2.67 7.92-6.239 7.92zm13.251 2.24h3.743V5.673h-3.743v29.33zm8.159 0h3.743v-20.16h-3.743v20.16zm1.847-28.116a2.252 2.252 0 00-1.655.647 2.204 2.204 0 00-.653 1.642 2.171 2.171 0 001.355 2.087c.274.113.569.169.866.165a2.304 2.304 0 001.513-.72 2.269 2.269 0 000-3.1 2.304 2.304 0 00-1.513-.721h.087zm28.472 7.499a6.812 6.812 0 00-4.417 1.448 8.067 8.067 0 00-2.321 2.623h-.074a5.944 5.944 0 00-2.2-2.933 6.023 6.023 0 00-3.515-1.101 7.06 7.06 0 00-3.75.942 6.977 6.977 0 00-2.675 2.77h-.125l-.175-3.242h-3.231c.087 1.659.174 3.33.174 5.458v14.652h3.606V22.838a5.267 5.267 0 01.287-1.794 5.073 5.073 0 011.699-2.583 5.14 5.14 0 012.893-1.13c2.807 0 4.242 2.29 4.242 5.495v12.127h3.606V22.505a6.262 6.262 0 01.299-1.832 4.803 4.803 0 011.683-2.328 4.867 4.867 0 012.721-.963c2.932 0 4.405 2.29 4.405 6.187v11.41h3.618v-11.88c0-6.992-3.993-8.737-6.725-8.737l-.025.025zm25.428 8.217c0-4.034-1.51-8.242-7.761-8.242a13.27 13.27 0 00-6.725 1.77l.836 2.475a9.831 9.831 0 015.403-1.535c4.155 0 4.615 3.007 4.615 4.666v.42c-7.848 0-12.227 2.624-12.227 7.5a5.718 5.718 0 001.838 4.25 5.79 5.79 0 002.038 1.224 5.84 5.84 0 002.364.305 7.536 7.536 0 003.489-.738 7.482 7.482 0 002.748-2.257h.125l.324 2.55h3.332a33.042 33.042 0 01-.299-4.839l-.1-7.549zm-3.619 5.606a3.75 3.75 0 01-.161 1.163 5.104 5.104 0 01-1.941 2.496 5.16 5.16 0 01-3.051.883 3.258 3.258 0 01-2.532-.965 3.191 3.191 0 01-.899-2.538c0-3.91 4.567-4.615 8.597-4.541l-.013 3.502zm16.894 3.91a6.74 6.74 0 01-2.146.26c-2.059 0-2.77-1.423-2.77-3.922V17.628h5.053v-2.784h-5.053v-4.839l-3.605 1.126v3.713h-3.144v2.784h3.144V28.58a7.89 7.89 0 001.422 5.297 5.29 5.29 0 001.833 1.185 5.341 5.341 0 002.159.35 10.351 10.351 0 003.281-.496l-.174-2.796zm2.62-28.006h1.249c.673 0 1.359.15 1.359.929 0 .78-.71 1.014-1.522 1.014h-1.136l.05-1.943zm0 2.723h1.098l1.647 2.698h1.074l-1.76-2.735a1.654 1.654 0 001.181-.51 1.627 1.627 0 00.442-1.198c0-1.237-.736-1.757-2.222-1.757h-2.37V9.52h.936l-.026-2.685zm-3.268-.42a4.35 4.35 0 011.205-3.248 4.421 4.421 0 013.205-1.366 4.445 4.445 0 013.205 1.366 4.353 4.353 0 011.207 3.247 4.353 4.353 0 01-1.207 3.247 4.443 4.443 0 01-6.41 0 4.35 4.35 0 01-1.205-3.247zm4.429 5.407a5.474 5.474 0 002.997-.95 5.366 5.366 0 00.737-8.286 5.477 5.477 0 00-5.913-1.139 5.43 5.43 0 00-2.431 1.982 5.364 5.364 0 00-.917 2.985 5.344 5.344 0 001.616 3.858 5.46 5.46 0 003.911 1.55z" fill="#000"/><path d="M88.136 58h1.607l-3.622-4.82 3.49-3.907h-1.607l-3.298 3.686h-.43v-3.686h-1.317V58h1.317v-3.912h.928L88.136 58zm4.63.145c1.082 0 1.691-.55 1.934-1.04h.051V58h1.244v-4.347c0-1.904-1.5-2.284-2.54-2.284-1.184 0-2.275.478-2.701 1.67l1.197.273c.188-.464.665-.911 1.522-.911.822 0 1.244.43 1.244 1.171v.03c0 .465-.477.456-1.653.593-1.24.145-2.51.468-2.51 1.956 0 1.286.967 1.994 2.211 1.994zm.276-1.023c-.72 0-1.24-.324-1.24-.954 0-.682.605-.925 1.342-1.023.414-.056 1.394-.166 1.577-.35v.844c0 .776-.618 1.483-1.679 1.483zm4.135.878h.409c1.427 0 1.952-1.057 2.054-3.222l.102-2.224h2.139V58h1.249v-6.545h-4.568l-.115 2.897c-.081 2.02-.311 2.544-1.04 2.544h-.234L97.177 58zm10.473.132c1.428 0 2.438-.703 2.727-1.768l-1.205-.218c-.231.618-.785.934-1.509.934-1.091 0-1.824-.708-1.858-1.97h4.653v-.45c0-2.366-1.414-3.29-2.897-3.29-1.824 0-3.026 1.389-3.026 3.4 0 2.033 1.185 3.362 3.115 3.362zm-1.841-3.976c.051-.929.725-1.734 1.76-1.734.989 0 1.637.733 1.641 1.734h-3.401zm7.312-2.701h-1.249V58h1.249v-2.719h2.834V58h1.244v-6.545h-1.244v2.723h-2.834v-2.723zm5.143 8.433h1.262V58h4.563v1.888h1.245v-2.992h-1.006v-5.441h-4.449l-.204 2.441c-.137 1.65-.337 2.51-.878 3h-.533v2.992zm1.897-2.992c.434-.61.596-1.623.724-3l.136-1.35h2.063v4.35h-2.923zm8.323 1.249c1.082 0 1.692-.55 1.935-1.04h.051V58h1.244v-4.347c0-1.904-1.5-2.284-2.54-2.284-1.184 0-2.275.478-2.701 1.67l1.197.273c.188-.464.665-.911 1.521-.911.823 0 1.245.43 1.245 1.171v.03c0 .465-.478.456-1.654.593-1.24.145-2.51.468-2.51 1.956 0 1.286.968 1.994 2.212 1.994zm.277-1.023c-.72 0-1.24-.324-1.24-.954 0-.682.605-.925 1.342-1.023.414-.056 1.394-.166 1.577-.35v.844c0 .776-.618 1.483-1.679 1.483zm4.65 3.333h1.274V56.98h.077c.23.418.699 1.147 1.892 1.147 1.585 0 2.736-1.27 2.736-3.388 0-2.122-1.168-3.37-2.749-3.37-1.214 0-1.653.74-1.879 1.146h-.106v-1.061h-1.245v9zm1.249-5.728c0-1.368.596-2.275 1.709-2.275 1.154 0 1.734.976 1.734 2.275 0 1.313-.597 2.314-1.734 2.314-1.096 0-1.709-.937-1.709-2.314zm7.406-3.272h-1.249V58h1.249v-2.719h2.834V58h1.244v-6.545H144.9v2.723h-2.834v-2.723zm7.031 2.25v-2.25h-1.248V58h2.859c1.602 0 2.497-.929 2.497-2.16 0-1.258-.895-2.136-2.497-2.136h-1.611zM154.134 58h1.274v-6.545h-1.274V58zm-5.037-3.196h1.611c.733 0 1.257.443 1.257 1.074 0 .596-.524 1.023-1.257 1.023h-1.611v-2.097zm9.27 1.41v-4.76h-1.249V58h1.385l2.872-4.764V58h1.249v-6.545h-1.372l-2.885 4.76zm2.339-6.975c0 .43-.238.81-.835.81-.605 0-.831-.384-.831-.81h-1.044c0 .958.729 1.619 1.875 1.619 1.155 0 1.884-.66 1.884-1.62h-1.049zm10.48 7.184l-2.071-4.968h-1.602V58h1.248v-4.76l1.952 4.76h.946l1.986-4.743V58h1.24v-6.545H173.3l-2.114 4.968zm7.302 1.722c1.082 0 1.692-.55 1.935-1.04h.051V58h1.244v-4.347c0-1.904-1.5-2.284-2.54-2.284-1.184 0-2.275.478-2.701 1.67l1.197.273c.188-.464.665-.911 1.521-.911.823 0 1.245.43 1.245 1.171v.03c0 .465-.478.456-1.654.593-1.24.145-2.51.468-2.51 1.956 0 1.286.968 1.994 2.212 1.994zm.277-1.023c-.72 0-1.24-.324-1.24-.954 0-.682.605-.925 1.342-1.023.414-.056 1.394-.166 1.577-.35v.844c0 .776-.618 1.483-1.679 1.483zm4.65 3.333h1.274V56.98h.077c.23.418.699 1.147 1.892 1.147 1.585 0 2.736-1.27 2.736-3.388 0-2.122-1.168-3.37-2.749-3.37-1.214 0-1.653.74-1.879 1.146h-.107v-1.061h-1.244v9zm1.249-5.728c0-1.368.596-2.275 1.709-2.275 1.154 0 1.734.976 1.734 2.275 0 1.313-.597 2.314-1.734 2.314-1.096 0-1.709-.937-1.709-2.314zM190.821 58h1.275v-2.617h.826L194.895 58h1.581l-2.565-3.362 2.535-3.183h-1.576l-2.161 2.744h-.613v-2.744h-1.275V58zm9.196.132c1.428 0 2.438-.703 2.728-1.768l-1.206-.218c-.23.618-.784.934-1.509.934-1.091 0-1.824-.708-1.858-1.97h4.654v-.45c0-2.366-1.415-3.29-2.898-3.29-1.824 0-3.026 1.389-3.026 3.4 0 2.033 1.185 3.362 3.115 3.362zm-1.841-3.976c.052-.929.725-1.734 1.76-1.734.989 0 1.637.733 1.641 1.734h-3.401zm5.486-1.602h2.143V58h1.245v-5.446h2.135v-1.1h-5.523v1.1zm6.87 5.446h1.24v-5.446h2.851V58h1.249v-6.545h-5.34V58zm6.528 0h.409c1.427 0 1.951-1.057 2.054-3.222l.102-2.224h2.139V58h1.249v-6.545h-4.568l-.115 2.897c-.081 2.02-.312 2.544-1.04 2.544h-.235L217.06 58zm10.473.132c1.428 0 2.438-.703 2.727-1.768l-1.206-.218c-.23.618-.784.934-1.508.934-1.091 0-1.824-.708-1.858-1.97h4.653v-.45c0-2.366-1.415-3.29-2.897-3.29-1.824 0-3.026 1.389-3.026 3.4 0 2.033 1.185 3.362 3.115 3.362zm-1.841-3.976c.051-.929.725-1.734 1.76-1.734.989 0 1.636.733 1.641 1.734h-3.401zm7.312 2.059v-4.76h-1.249V58h1.385l2.872-4.764V58h1.249v-6.545h-1.373l-2.884 4.76zm2.339-6.976c0 .43-.239.81-.835.81-.605 0-.831-.384-.831-.81h-1.044c0 .958.729 1.619 1.875 1.619 1.155 0 1.883-.66 1.883-1.62h-1.048zm6.388 8.893c1.547 0 2.548-.929 2.689-2.203h-1.24c-.162.707-.712 1.125-1.441 1.125-1.078 0-1.772-.9-1.772-2.327 0-1.402.707-2.284 1.772-2.284.81 0 1.304.512 1.441 1.125h1.24c-.137-1.32-1.215-2.199-2.702-2.199-1.845 0-3.038 1.39-3.038 3.388 0 1.973 1.15 3.375 3.051 3.375z" fill="#222"/><defs><radialGradient id="paint0_radial_151_714" cx="0" cy="0" r="1" gradientUnits="userSpaceOnUse" gradientTransform="matrix(-24.2365 0 0 -24.1066 30.088 37.483)"><stop stop-color="#CEE5F5"/><stop offset="1" stop-color="#44A1D0"/></radialGradient><radialGradient id="paint1_radial_151_714" cx="0" cy="0" r="1" gradientUnits="userSpaceOnUse" gradientTransform="matrix(24.5214 0 0 24.1807 24.882 37.154)"><stop stop-color="#F8DD83"/><stop offset="1" stop-color="#DE9222"/></radialGradient><radialGradient id="paint2_radial_151_714" cx="0" cy="0" r="1" gradientUnits="userSpaceOnUse" gradientTransform="matrix(-27.3721 0 0 -27.3944 40.167 28.605)"><stop stop-color="#DAEA73"/><stop offset="1" stop-color="#68B336"/></radialGradient></defs></svg>