<svg width="24" height="24" fill="none" xmlns="http://www.w3.org/2000/svg"><g clip-path="url(#clip0_151_686)"><path d="M23.836 22.575l-6.047-6.047a.557.557 0 00-.398-.164h-.483A9.707 9.707 0 0019.5 9.75 9.749 9.749 0 009.75 0 9.749 9.749 0 000 9.75a9.749 9.749 0 0016.364 7.163v.478c0 .15.061.29.164.398l6.047 6.047c.22.22.577.22.797 0l.464-.464a.563.563 0 000-.797zM9.75 18C5.19 18 1.5 14.31 1.5 9.75c0-4.56 3.69-8.25 8.25-8.25C14.31 1.5 18 5.19 18 9.75 18 14.31 14.31 18 9.75 18z" fill="#4D4D4D"/></g><defs><clipPath id="clip0_151_686"><path fill="#fff" d="M0 0h24v24H0z"/></clipPath></defs></svg>