<svg width="18" height="18" viewBox="0 0 18 18" fill="none" xmlns="http://www.w3.org/2000/svg">
<path d="M9 0.28125C4.18359 0.28125 0.28125 4.18359 0.28125 9C0.28125 13.8164 4.18359 17.7188 9 17.7188C13.8164 17.7188 17.7188 13.8164 17.7188 9C17.7188 4.18359 13.8164 0.28125 9 0.28125ZM16.5938 9C16.5938 13.173 13.2152 16.5938 9 16.5938C4.82695 16.5938 1.40625 13.2152 1.40625 9C1.40625 4.82695 4.78477 1.40625 9 1.40625C13.173 1.40625 16.5938 4.78477 16.5938 9ZM11.359 12.1043L8.5043 10.0301C8.39531 9.94922 8.33203 9.82266 8.33203 9.68906V4.07812C8.33203 3.84609 8.52188 3.65625 8.75391 3.65625H9.24609C9.47812 3.65625 9.66797 3.84609 9.66797 4.07812V9.22148L12.1465 11.025C12.3363 11.1621 12.375 11.4258 12.2379 11.6156L11.9496 12.0129C11.8125 12.1992 11.5488 12.2414 11.359 12.1043Z" fill="#B7B7B7"/>
</svg>
