<svg width="16" height="22" viewBox="0 0 16 22" fill="none" xmlns="http://www.w3.org/2000/svg">
<path d="M14.4795 8.26062C13.8988 6.71887 13.0521 5.29096 11.9778 4.04187C10.1187 1.88984 7.67422 0.5 5.75 0.5C5.63558 0.500085 5.5227 0.526347 5.42 0.576776C5.3173 0.627204 5.22749 0.700462 5.15746 0.790942C5.08743 0.881422 5.03903 0.986725 5.01596 1.09879C4.99289 1.21086 4.99577 1.32672 5.02437 1.4375C5.67453 3.92188 4.32688 5.98766 2.90047 8.17438C1.71875 9.98563 0.5 11.8564 0.5 14C0.5 18.1353 3.86469 21.5 8 21.5C12.1353 21.5 15.5 18.1353 15.5 14C15.5 11.9703 15.1569 10.0395 14.4795 8.26062ZM9.51547 18.6261C9.03125 19.1417 8.42422 19.25 8 19.25C7.57578 19.25 6.96875 19.1417 6.48453 18.6261C6.00031 18.1105 5.75 17.2925 5.75 16.25C5.75 15.0716 6.16344 14.1744 6.56281 13.3072C6.79484 12.8038 7.03156 12.2914 7.17219 11.743C7.18712 11.6833 7.21649 11.6282 7.25772 11.5826C7.29895 11.537 7.35077 11.5022 7.40861 11.4813C7.46645 11.4604 7.52854 11.4541 7.58941 11.4628C7.65028 11.4716 7.70806 11.4952 7.75766 11.5316C8.18638 11.8633 8.56759 12.2522 8.89062 12.6875C9.74234 13.8125 10.25 15.1447 10.25 16.25C10.25 17.2925 9.99594 18.1142 9.51547 18.6261Z" fill="#FF844B"/>
</svg>
