<svg width="18" height="14" viewBox="0 0 18 14" fill="none" xmlns="http://www.w3.org/2000/svg">
<path d="M16.3125 0.25H1.6875C0.755859 0.25 0 1.00586 0 1.9375V12.0625C0 12.9941 0.755859 13.75 1.6875 13.75H16.3125C17.2441 13.75 18 12.9941 18 12.0625V1.9375C18 1.00586 17.2441 0.25 16.3125 0.25ZM1.6875 1.375H16.3125C16.6219 1.375 16.875 1.62812 16.875 1.9375V3.39297C16.1051 4.04336 15.0047 4.93984 11.5805 7.65742C10.9863 8.12852 9.81563 9.26406 9 9.25C8.18437 9.26406 7.01016 8.12852 6.41953 7.65742C2.99531 4.93984 1.89492 4.04336 1.125 3.39297V1.9375C1.125 1.62812 1.37812 1.375 1.6875 1.375ZM16.3125 12.625H1.6875C1.37812 12.625 1.125 12.3719 1.125 12.0625V4.85547C1.92656 5.51289 3.19219 6.52891 5.71992 8.53633C6.44062 9.11289 7.71328 10.382 9 10.375C10.2797 10.3855 11.5418 9.12695 12.2801 8.53633C14.8078 6.52891 16.0734 5.51289 16.875 4.85547V12.0625C16.875 12.3719 16.6219 12.625 16.3125 12.625Z" fill="#B7B7B7"/>
</svg>
