<svg width="18" height="16" viewBox="0 0 18 16" fill="none" xmlns="http://www.w3.org/2000/svg">
<path d="M9 7.4375C8.44374 7.4375 7.89998 7.60245 7.43746 7.91149C6.97495 8.22053 6.61446 8.65979 6.40159 9.1737C6.18872 9.68762 6.13302 10.2531 6.24154 10.7987C6.35007 11.3443 6.61793 11.8454 7.01127 12.2387C7.4046 12.6321 7.90574 12.8999 8.45131 13.0085C8.99688 13.117 9.56238 13.0613 10.0763 12.8484C10.5902 12.6355 11.0295 12.2751 11.3385 11.8125C11.6476 11.35 11.8125 10.8063 11.8125 10.25C11.8125 9.50408 11.5162 8.78871 10.9887 8.26126C10.4613 7.73382 9.74592 7.4375 9 7.4375ZM9 11.9375C8.66625 11.9375 8.33999 11.8385 8.06248 11.6531C7.78497 11.4677 7.56868 11.2041 7.44096 10.8958C7.31323 10.5874 7.27982 10.2481 7.34493 9.92078C7.41004 9.59344 7.57076 9.29276 7.80676 9.05676C8.04276 8.82076 8.34345 8.66004 8.67079 8.59492C8.99813 8.52981 9.33743 8.56323 9.64578 8.69095C9.95413 8.81868 10.2177 9.03497 10.4031 9.31248C10.5885 9.58998 10.6875 9.91624 10.6875 10.25C10.687 10.6974 10.5091 11.1264 10.1927 11.4427C9.87637 11.7591 9.44741 11.937 9 11.9375ZM13.0229 5.75879C12.8261 5.41436 12.5418 5.12809 12.1987 4.92897C11.8556 4.72986 11.466 4.625 11.0693 4.625H6.93071C6.53403 4.625 6.14439 4.72986 5.8013 4.92897C5.45822 5.12809 5.17386 5.41436 4.97707 5.75879L1.27301 12.2405C1.17593 12.4106 1.12491 12.603 1.125 12.7988V14.75C1.125 15.0484 1.24353 15.3345 1.45451 15.5455C1.66549 15.7565 1.95163 15.875 2.25 15.875H15.75C16.0484 15.875 16.3345 15.7565 16.5455 15.5455C16.7565 15.3345 16.875 15.0484 16.875 14.75V12.7988C16.8751 12.603 16.8241 12.4106 16.727 12.2405L13.0229 5.75879ZM15.75 14.75H2.25V12.7988L5.95407 6.31672C6.05266 6.14473 6.19486 6.00178 6.36633 5.90229C6.53779 5.80279 6.73246 5.75026 6.93071 5.75H11.0693C11.2675 5.75026 11.4622 5.80279 11.6337 5.90229C11.8051 6.00178 11.9473 6.14473 12.0459 6.31672L15.75 12.7988V14.75ZM17.5876 3.15547C15.1777 1.22223 12.1222 0.125 9 0.125C5.87778 0.125 2.82235 1.22223 0.412386 3.15547C0.282294 3.2625 0.177755 3.39724 0.106408 3.54985C0.0350611 3.70246 -0.00129267 3.86908 2.93487e-06 4.03754V6.3125C2.93487e-06 6.46168 0.0592662 6.60476 0.164755 6.71025C0.270245 6.81574 0.413319 6.875 0.562503 6.875H3.02731C3.13179 6.87498 3.23419 6.84586 3.32305 6.7909C3.41191 6.73595 3.48371 6.65733 3.53039 6.56387L4.5 4.34375C5.90274 3.73625 7.42606 3.5 9 3.5C10.5739 3.5 12.0966 3.73625 13.5 4.34375L14.4696 6.56387C14.5163 6.65733 14.5881 6.73595 14.677 6.7909C14.7658 6.84586 14.8682 6.87498 14.9727 6.875H17.4375C17.5867 6.875 17.7298 6.81574 17.8353 6.71025C17.9407 6.60476 18 6.46168 18 6.3125V4.03754C18.0013 3.86908 17.9649 3.70246 17.8936 3.54985C17.8223 3.39724 17.7177 3.2625 17.5876 3.15547ZM16.875 5.75H15.3418L14.5308 3.8934L14.355 3.48734L13.9482 3.31156C12.4921 2.68121 10.8738 2.375 9 2.375C7.12618 2.375 5.50829 2.68121 4.05317 3.31121L3.64641 3.48699L3.47063 3.89305L2.65817 5.75H1.12289L1.11657 4.03297C3.35287 2.23838 6.13268 1.25707 9 1.25C11.8659 1.2552 14.6441 2.23862 16.875 4.03754V5.75Z" fill="#B7B7B7"/>
</svg>
