<svg width="25" height="29" viewBox="0 0 25 29" fill="none" xmlns="http://www.w3.org/2000/svg">
<path d="M19.6429 7.25C19.6429 3.25236 16.4386 0 12.5 0C8.56138 0 5.35714 3.25236 5.35714 7.25H0V24.4688C0 26.9713 1.99872 29 4.46429 29H20.5357C23.0013 29 25 26.9713 25 24.4688V7.25H19.6429ZM12.5 1.8125C15.454 1.8125 17.8571 4.25173 17.8571 7.25H7.14286C7.14286 4.25173 9.54604 1.8125 12.5 1.8125ZM23.2143 24.4688C23.2143 25.9679 22.0127 27.1875 20.5357 27.1875H4.46429C2.98733 27.1875 1.78571 25.9679 1.78571 24.4688V9.0625H5.35714V11.7812C5.35714 12.2818 5.75692 12.6875 6.25 12.6875C6.74308 12.6875 7.14286 12.2818 7.14286 11.7812V9.0625H17.8571V11.7812C17.8571 12.2818 18.2569 12.6875 18.75 12.6875C19.2431 12.6875 19.6429 12.2818 19.6429 11.7812V9.0625H23.2143V24.4688Z" fill="#4D4D4D"/>
</svg>
