<svg width="30" height="24" viewBox="0 0 30 24" fill="none" xmlns="http://www.w3.org/2000/svg">
<g clip-path="url(#clip0_151_684)">
<path d="M29.7372 13.0823L24.6255 4.83375C24.4769 4.61156 24.2383 4.5 23.9997 4.5C23.7611 4.5 23.5225 4.61156 23.3739 4.83375L18.2622 13.0823C18.0808 13.3533 17.9767 13.6786 18.0039 14.003C18.2603 17.0813 20.8469 19.5 23.9997 19.5C27.1525 19.5 29.7391 17.0813 29.9955 14.003C30.0226 13.6786 29.9186 13.3533 29.7372 13.0823ZM23.9997 18C22.0506 18 20.3645 16.7283 19.7444 15H28.2381C27.6091 16.7452 25.9347 18 23.9997 18ZM19.7683 13.5L24.0016 6.6675L28.2644 13.5H19.7683ZM25.1247 22.5H15.7497V5.89406C17.0416 5.55937 17.9997 4.39641 17.9997 3H25.1247C25.3319 3 25.4997 2.83219 25.4997 2.625V1.875C25.4997 1.66781 25.3319 1.5 25.1247 1.5H17.5727C17.5656 1.48781 17.3678 0.979219 16.6769 0.512344C16.1983 0.188906 15.6208 0 14.9997 0C14.3786 0 13.8011 0.188906 13.3225 0.512344C12.6316 0.979219 12.4338 1.48781 12.4267 1.5H4.8747C4.66751 1.5 4.4997 1.66781 4.4997 1.875V2.625C4.4997 2.83219 4.66751 3 4.8747 3H11.9997C11.9997 4.39641 12.9578 5.55937 14.2497 5.89406V22.5H4.8747C4.66751 22.5 4.4997 22.6678 4.4997 22.875V23.625C4.4997 23.8322 4.66751 24 4.8747 24H25.1247C25.3319 24 25.4997 23.8322 25.4997 23.625V22.875C25.4997 22.6678 25.3319 22.5 25.1247 22.5ZM13.4997 3C13.4997 2.17172 14.1714 1.5 14.9997 1.5C15.828 1.5 16.4997 2.17172 16.4997 3C16.4997 3.82828 15.828 4.5 14.9997 4.5C14.1714 4.5 13.4997 3.82828 13.4997 3ZM11.9955 14.003C12.0227 13.6786 11.9186 13.3533 11.7372 13.0823L6.62548 4.83375C6.47688 4.61156 6.23829 4.5 5.9997 4.5C5.7611 4.5 5.52251 4.61156 5.37392 4.83375L0.262201 13.0823C0.0807944 13.3533 -0.023268 13.6786 0.00391945 14.003C0.260326 17.0813 2.84689 19.5 5.9997 19.5C9.15251 19.5 11.7391 17.0813 11.9955 14.003ZM6.00157 6.6675L10.2644 13.5H1.76829L6.00157 6.6675ZM1.74439 15H10.2381C9.60907 16.7452 7.9347 18 5.9997 18C4.05064 18 2.36454 16.7283 1.74439 15Z" fill="#4D4D4D"/>
</g>
<defs>
<clipPath id="clip0_151_684">
<rect width="30" height="24" fill="white"/>
</clipPath>
</defs>
</svg>
