<svg width="26" height="26" viewBox="0 0 26 26" fill="none" xmlns="http://www.w3.org/2000/svg">
<g clip-path="url(#clip0_151_682)">
<path d="M23.4762 3.18399C20.7086 0.827745 16.5699 1.21876 14.0004 3.86954L13 4.90548L11.9996 3.87462C9.92775 1.73165 5.74845 0.441807 2.52384 3.18399C-0.665222 5.90587 -0.8328 10.791 2.02111 13.7363L11.8473 23.8824C12.1621 24.2074 12.5785 24.375 12.9949 24.375C13.4113 24.375 13.8277 24.2125 14.1426 23.8824L23.9688 13.7363C26.8328 10.791 26.6652 5.90587 23.4762 3.18399ZM22.811 12.609L13.0203 22.7551L3.18907 12.609C1.23908 10.5981 0.832825 6.76407 3.58009 4.42306C6.3629 2.04649 9.63322 3.76798 10.8317 5.00704L13 7.24649L15.1684 5.00704C16.3465 3.78829 19.6473 2.06173 22.4199 4.42306C25.1621 6.759 24.761 10.593 22.811 12.609Z" fill="#4D4D4D"/>
</g>
<defs>
<clipPath id="clip0_151_682">
<rect width="26" height="26" fill="white"/>
</clipPath>
</defs>
</svg>
