<svg width="249" height="63" viewBox="0 0 249 63" fill="none" xmlns="http://www.w3.org/2000/svg">
<path d="M43.0831 16.5248C40.4565 16.5115 37.855 17.0363 35.4407 18.066C33.0264 19.0958 30.851 20.6087 29.05 22.5106C30.055 22.3638 31.0694 22.2894 32.0853 22.2884C36.6977 22.2486 41.1913 23.7426 44.8524 26.5332C48.5137 29.3238 51.1327 33.2509 52.2937 37.691C53.4545 42.1312 53.0909 46.8299 51.2603 51.041C49.4298 55.2521 46.2372 58.7343 42.1897 60.9344C46.8101 59.3562 50.9807 56.6952 54.3493 53.1762C57.7181 49.6573 60.186 45.3836 61.5445 40.7163C61.5872 40.5789 61.6223 40.4391 61.6496 40.298C62.3754 37.4837 62.4441 34.5414 61.8503 31.6967C61.2566 28.8518 60.0163 26.1799 58.2244 23.8854C56.4323 21.5909 54.1362 19.7347 51.5118 18.4588C48.8875 17.1831 46.0044 16.5215 43.0831 16.5248Z" fill="url(#paint0_radial_151_714)"/>
<path d="M48.7625 45.0077C48.7672 40.6416 47.0574 36.4433 43.9917 33.2929C42.6386 35.6808 40.8145 37.7773 38.6265 39.4589C36.4388 41.1406 33.9317 42.3732 31.2531 43.0843C28.5745 43.7952 25.7788 43.9701 23.0305 43.5988C20.2822 43.2274 17.6373 42.3171 15.2515 40.9217C12.8656 39.5262 10.7872 37.674 9.13886 35.4738C7.49051 33.2739 6.30555 30.7705 5.65383 28.1118C5.00211 25.453 4.89682 22.6923 5.34418 19.9929C5.79155 17.2932 6.7825 14.7093 8.25863 12.3934C4.49964 16.7772 2.08931 22.1291 1.31144 27.8185C0.533555 33.5079 1.42057 39.2981 3.86799 44.507C6.31542 49.7161 10.2213 54.1269 15.1257 57.2204C20.0302 60.3137 25.7288 61.9606 31.5506 61.9672H32.4459C36.8526 61.744 41.0039 59.8592 44.0408 56.7025C47.0778 53.5459 48.7682 49.3589 48.7625 45.0077Z" fill="url(#paint1_radial_151_714)"/>
<path d="M22.177 38.2131C22.0444 37.2212 21.9784 36.2216 21.9794 35.2209C21.9685 30.7888 23.25 26.4497 25.6666 22.7356C28.0832 19.0217 31.5301 16.0939 35.5847 14.3113C39.6392 12.5285 44.1252 11.9685 48.493 12.6996C52.8609 13.4308 56.9207 15.4213 60.175 18.4275C58.3347 14.5464 55.6948 11.0991 52.4284 8.31184C49.1621 5.52463 45.3436 3.46063 41.2236 2.25551C37.1036 1.05037 32.7753 0.73136 28.5234 1.31944C24.2714 1.90751 20.192 3.38935 16.5529 5.66761C13.5843 7.56847 11.2423 10.3041 9.82076 13.5316C8.39918 16.759 7.96123 20.3347 8.56183 23.8103C9.16241 27.2857 10.7748 30.5064 13.1968 33.0687C15.6189 35.6308 18.7427 37.4205 22.177 38.2131Z" fill="url(#paint2_radial_151_714)"/>
<path d="M97.0277 8.58198C95.3309 7.05975 92.6609 6.23056 89.0177 6.23056C86.5886 6.20838 84.1624 6.4031 81.7687 6.81219V34.9907H85.5117V23.3704C86.5432 23.5672 87.5935 23.6504 88.6434 23.6178C92.2491 23.6178 95.4183 22.5782 97.3771 20.5116C98.1448 19.7062 98.7395 18.7544 99.1256 17.7142C99.5115 16.6742 99.6807 15.5671 99.6229 14.4602C99.6596 13.3597 99.4556 12.2646 99.0248 11.2497C98.594 10.2349 97.9468 9.32481 97.1276 8.58198H97.0277ZM88.7806 20.6725C87.7 20.702 86.6198 20.6065 85.5616 20.3879V9.42345C86.7615 9.19361 87.9831 9.09401 89.2048 9.12641C93.2722 9.12641 95.9422 10.9332 95.9422 14.6706C95.9422 18.4079 93.2348 20.6725 88.7806 20.6725ZM110.116 14.2993C104.489 14.2993 99.9722 18.284 99.9722 25.0905C99.9722 31.5009 104.277 35.5353 109.779 35.5353C114.645 35.5353 119.935 32.2557 119.935 24.7068C119.935 18.5193 115.955 14.2993 110.078 14.2993H110.116ZM109.916 32.7631C106.323 32.7631 103.778 29.4095 103.778 24.9667C103.778 21.1057 105.687 17.0713 110.016 17.0713C114.345 17.0713 116.155 21.4027 116.155 24.843C116.155 29.4465 113.485 32.7631 109.916 32.7631ZM123.167 35.0031H126.91V5.67368H123.167V35.0031ZM131.326 35.0031H135.069V14.8437H131.326V35.0031ZM133.173 6.88657C132.867 6.8762 132.562 6.92823 132.277 7.03964C131.993 7.15105 131.734 7.31928 131.518 7.53396C131.301 7.74864 131.131 8.0053 131.019 8.28765C130.907 8.57016 130.854 8.87247 130.865 9.17589C130.855 9.47022 130.905 9.76359 131.012 10.0381C131.12 10.3127 131.282 10.5628 131.489 10.7733C131.697 10.9838 131.945 11.1503 132.22 11.263C132.494 11.3755 132.789 11.4317 133.086 11.4282C133.664 11.3859 134.204 11.1283 134.599 10.7071C134.993 10.2858 135.212 9.7323 135.212 9.15738C135.212 8.58245 134.993 8.02892 134.599 7.6077C134.204 7.18648 133.664 6.92887 133.086 6.88657H133.173ZM161.645 14.386C160.047 14.3363 158.482 14.8493 157.228 15.8338C156.27 16.5292 155.478 17.425 154.907 18.4574H154.833C154.429 17.2745 153.659 16.2478 152.633 15.5237C151.607 14.7994 150.377 14.4142 149.118 14.423C147.804 14.382 146.505 14.7084 145.368 15.3649C144.232 16.0214 143.305 16.9814 142.693 18.1356H142.568L142.393 14.8932H139.162C139.249 16.5516 139.336 18.2222 139.336 20.3507V35.0031H142.942V22.8382C142.933 22.228 143.03 21.621 143.229 21.0437C143.512 20.0289 144.105 19.1265 144.928 18.4612C145.751 17.7959 146.762 17.401 147.821 17.3311C150.628 17.3311 152.063 19.6206 152.063 22.8258V34.9535H155.669V22.504C155.677 21.8822 155.778 21.2651 155.968 20.6725C156.277 19.7445 156.864 18.932 157.651 18.3437C158.438 17.7555 159.388 17.4196 160.372 17.3808C163.304 17.3808 164.777 19.6701 164.777 23.5683V34.9784H168.395V23.0981C168.395 16.1061 164.402 14.3611 161.67 14.3611L161.645 14.386ZM187.073 22.603C187.073 18.5688 185.563 14.3611 179.312 14.3611C176.951 14.3433 174.628 14.9545 172.587 16.1308L173.423 18.6058C175.033 17.5806 176.913 17.047 178.826 17.0713C182.981 17.0713 183.441 20.0785 183.441 21.7368V22.1575C175.593 22.1575 171.214 24.781 171.214 29.6569C171.208 30.4532 171.366 31.2422 171.683 31.974C171.999 32.7058 172.466 33.3644 173.052 33.9079C173.638 34.4513 174.332 34.8678 175.09 35.131C175.849 35.394 176.653 35.4981 177.454 35.4361C178.66 35.4727 179.856 35.2194 180.943 34.6979C182.028 34.1765 182.971 33.4024 183.691 32.4413H183.816L184.14 34.9907H187.472C187.254 33.387 187.154 31.7698 187.173 30.152L187.073 22.603ZM183.454 28.209C183.462 28.6028 183.407 28.9956 183.293 29.3723C182.928 30.387 182.248 31.2608 181.352 31.868C180.455 32.4752 179.387 32.7843 178.301 32.7508C177.835 32.7815 177.366 32.7112 176.929 32.5448C176.491 32.3781 176.096 32.1194 175.769 31.7863C175.443 31.4532 175.195 31.0537 175.038 30.6155C174.883 30.1774 174.826 29.711 174.87 29.2486C174.87 25.3379 179.437 24.6326 183.467 24.7068L183.454 28.209ZM200.348 32.1196C199.652 32.3211 198.927 32.4089 198.202 32.3796C196.143 32.3796 195.432 30.9563 195.432 28.4566V17.6282H200.485V14.8437H195.432V10.0051L191.827 11.1311V14.8437H188.683V17.6282H191.827V28.5803C191.652 30.4573 192.156 32.3345 193.249 33.8769C193.769 34.3939 194.394 34.7974 195.082 35.0617C195.77 35.3259 196.505 35.4451 197.241 35.4114C198.355 35.4238 199.463 35.2566 200.522 34.9164L200.348 32.1196Z" fill="black"/>
<path d="M202.968 4.11349H204.217C204.89 4.11349 205.576 4.26209 205.576 5.04164C205.576 5.82134 204.866 6.05645 204.054 6.05645H202.918L202.968 4.11349ZM202.968 6.836H204.066L205.713 9.53393H206.787L205.027 6.79897C205.248 6.79753 205.466 6.75173 205.67 6.6641C205.873 6.57663 206.056 6.4491 206.208 6.28949C206.359 6.12972 206.476 5.94121 206.552 5.73531C206.627 5.52925 206.661 5.31027 206.65 5.09112C206.65 3.85364 205.914 3.33394 204.428 3.33394H202.058V9.52148H202.994L202.968 6.836ZM199.7 6.41526C199.668 5.82119 199.758 5.22695 199.965 4.66878C200.173 4.11046 200.493 3.60002 200.905 3.16826C201.318 2.73651 201.815 2.39271 202.366 2.15776C202.917 1.92297 203.511 1.80166 204.11 1.80166C204.711 1.80166 205.303 1.92297 205.854 2.15776C206.406 2.39271 206.904 2.73651 207.315 3.16826C207.729 3.60002 208.048 4.11046 208.255 4.66878C208.462 5.22695 208.552 5.82119 208.522 6.41526C208.552 7.00934 208.462 7.60358 208.255 8.1619C208.048 8.72023 207.729 9.23067 207.315 9.66242C206.904 10.094 206.406 10.4378 205.854 10.6728C205.303 10.9077 204.711 11.0289 204.11 11.0289C203.511 11.0289 202.917 10.9077 202.366 10.6728C201.815 10.4378 201.318 10.094 200.905 9.66242C200.493 9.23067 200.173 8.72023 199.965 8.1619C199.758 7.60358 199.668 7.00934 199.7 6.41526ZM204.129 11.8233C205.2 11.8062 206.243 11.4756 207.126 10.8731C208.008 10.2704 208.693 9.42268 209.092 8.43612C209.49 7.44939 209.586 6.36802 209.368 5.3275C209.148 4.28699 208.625 3.33362 207.863 2.58712C207.099 1.84077 206.132 1.33448 205.079 1.13177C204.028 0.929061 202.938 1.03919 201.95 1.44812C200.96 1.85689 200.115 2.54657 199.519 3.43019C198.923 4.31396 198.605 5.3524 198.602 6.41526C198.599 7.13272 198.739 7.84364 199.017 8.50619C199.295 9.16874 199.703 9.76952 200.218 10.2734C200.732 10.7772 201.344 11.1738 202.016 11.44C202.687 11.7063 203.406 11.8365 204.129 11.8233Z" fill="black"/>
<path d="M88.1364 58H89.7429L86.1207 53.1804L89.6108 49.2727H88.0043L84.706 52.9588H84.2756V49.2727H82.9588V58H84.2756V54.0881H85.2045L88.1364 58ZM92.7653 58.1449C93.8477 58.1449 94.457 57.5952 94.6999 57.1051H94.7511V58H95.9954V53.6534C95.9954 51.7486 94.4954 51.3693 93.4556 51.3693C92.271 51.3693 91.18 51.8466 90.7539 53.0398L91.9513 53.3125C92.1388 52.848 92.6161 52.4006 93.4727 52.4006C94.2951 52.4006 94.717 52.831 94.717 53.5724V53.6023C94.717 54.0668 94.2397 54.0582 93.0636 54.1946C91.8235 54.3395 90.5536 54.6634 90.5536 56.1506C90.5536 57.4375 91.521 58.1449 92.7653 58.1449ZM93.0423 57.1222C92.3221 57.1222 91.8022 56.7983 91.8022 56.1676C91.8022 55.4858 92.4073 55.2429 93.1445 55.1449C93.5579 55.0895 94.538 54.9787 94.7212 54.7955V55.6392C94.7212 56.4148 94.1033 57.1222 93.0423 57.1222ZM97.1768 58H97.5859C99.0135 58 99.5376 56.9432 99.6399 54.7784L99.7422 52.554H101.881V58H103.13V51.4545H98.5618L98.4467 54.3523C98.3658 56.3722 98.1357 56.8963 97.407 56.8963H97.1726L97.1768 58ZM107.65 58.1321C109.078 58.1321 110.088 57.429 110.377 56.3636L109.172 56.1463C108.941 56.7642 108.387 57.0795 107.663 57.0795C106.572 57.0795 105.839 56.3722 105.805 55.1108H110.458V54.6591C110.458 52.294 109.044 51.3693 107.561 51.3693C105.737 51.3693 104.535 52.7585 104.535 54.7699C104.535 56.8026 105.72 58.1321 107.65 58.1321ZM105.809 54.1562C105.86 53.2273 106.534 52.4219 107.569 52.4219C108.558 52.4219 109.206 53.1548 109.21 54.1562H105.809ZM113.121 51.4545H111.872V58H113.121V55.2812H115.955V58H117.199V51.4545H115.955V54.1776H113.121V51.4545ZM118.264 59.8878H119.526V58H124.089V59.8878H125.334V56.8963H124.328V51.4545H119.879L119.675 53.8963C119.538 55.5455 119.338 56.4062 118.797 56.8963H118.264V59.8878ZM120.161 56.8963C120.595 56.2869 120.757 55.2727 120.885 53.8963L121.021 52.5455H123.084V56.8963H120.161ZM128.484 58.1449C129.566 58.1449 130.176 57.5952 130.419 57.1051H130.47V58H131.714V53.6534C131.714 51.7486 130.214 51.3693 129.174 51.3693C127.99 51.3693 126.899 51.8466 126.473 53.0398L127.67 53.3125C127.858 52.848 128.335 52.4006 129.191 52.4006C130.014 52.4006 130.436 52.831 130.436 53.5724V53.6023C130.436 54.0668 129.958 54.0582 128.782 54.1946C127.542 54.3395 126.272 54.6634 126.272 56.1506C126.272 57.4375 127.24 58.1449 128.484 58.1449ZM128.761 57.1222C128.041 57.1222 127.521 56.7983 127.521 56.1676C127.521 55.4858 128.126 55.2429 128.863 55.1449C129.277 55.0895 130.257 54.9787 130.44 54.7955V55.6392C130.44 56.4148 129.822 57.1222 128.761 57.1222ZM133.411 60.4545H134.685V56.9815H134.762C134.992 57.3991 135.461 58.1278 136.654 58.1278C138.239 58.1278 139.39 56.858 139.39 54.7401C139.39 52.6179 138.222 51.3693 136.641 51.3693C135.427 51.3693 134.988 52.1108 134.762 52.5156H134.656V51.4545H133.411V60.4545ZM134.66 54.7273C134.66 53.3594 135.256 52.4517 136.369 52.4517C137.523 52.4517 138.103 53.4276 138.103 54.7273C138.103 56.0398 137.506 57.0412 136.369 57.0412C135.273 57.0412 134.66 56.1037 134.66 54.7273ZM142.066 51.4545H140.817V58H142.066V55.2812H144.9V58H146.144V51.4545H144.9V54.1776H142.066V51.4545ZM149.097 53.7045V51.4545H147.849V58H150.708C152.31 58 153.205 57.071 153.205 55.8395C153.205 54.5824 152.31 53.7045 150.708 53.7045H149.097ZM154.134 58H155.408V51.4545H154.134V58ZM149.097 54.804H150.708C151.441 54.804 151.965 55.2472 151.965 55.8778C151.965 56.4744 151.441 56.9006 150.708 56.9006H149.097V54.804ZM158.367 56.2145V51.4545H157.118V58H158.503L161.375 53.2358V58H162.624V51.4545H161.252L158.367 56.2145ZM160.706 49.2386C160.706 49.669 160.468 50.0483 159.871 50.0483C159.266 50.0483 159.04 49.6648 159.04 49.2386H157.996C157.996 50.1974 158.725 50.858 159.871 50.858C161.026 50.858 161.755 50.1974 161.755 49.2386H160.706ZM171.186 56.4233L169.115 51.4545H167.513V58H168.761V53.2401L170.713 58H171.659L173.645 53.2571V58H174.885V51.4545H173.3L171.186 56.4233ZM178.488 58.1449C179.57 58.1449 180.18 57.5952 180.423 57.1051H180.474V58H181.718V53.6534C181.718 51.7486 180.218 51.3693 179.178 51.3693C177.994 51.3693 176.903 51.8466 176.477 53.0398L177.674 53.3125C177.862 52.848 178.339 52.4006 179.195 52.4006C180.018 52.4006 180.44 52.831 180.44 53.5724V53.6023C180.44 54.0668 179.962 54.0582 178.786 54.1946C177.546 54.3395 176.276 54.6634 176.276 56.1506C176.276 57.4375 177.244 58.1449 178.488 58.1449ZM178.765 57.1222C178.045 57.1222 177.525 56.7983 177.525 56.1676C177.525 55.4858 178.13 55.2429 178.867 55.1449C179.281 55.0895 180.261 54.9787 180.444 54.7955V55.6392C180.444 56.4148 179.826 57.1222 178.765 57.1222ZM183.415 60.4545H184.689V56.9815H184.766C184.996 57.3991 185.465 58.1278 186.658 58.1278C188.243 58.1278 189.394 56.858 189.394 54.7401C189.394 52.6179 188.226 51.3693 186.645 51.3693C185.431 51.3693 184.992 52.1108 184.766 52.5156H184.659V51.4545H183.415V60.4545ZM184.664 54.7273C184.664 53.3594 185.26 52.4517 186.373 52.4517C187.527 52.4517 188.107 53.4276 188.107 54.7273C188.107 56.0398 187.51 57.0412 186.373 57.0412C185.277 57.0412 184.664 56.1037 184.664 54.7273ZM190.821 58H192.096V55.3835H192.922L194.895 58H196.476L193.911 54.6378L196.446 51.4545H194.87L192.709 54.1989H192.096V51.4545H190.821V58ZM200.017 58.1321C201.445 58.1321 202.455 57.429 202.745 56.3636L201.539 56.1463C201.309 56.7642 200.755 57.0795 200.03 57.0795C198.939 57.0795 198.206 56.3722 198.172 55.1108H202.826V54.6591C202.826 52.294 201.411 51.3693 199.928 51.3693C198.104 51.3693 196.902 52.7585 196.902 54.7699C196.902 56.8026 198.087 58.1321 200.017 58.1321ZM198.176 54.1562C198.228 53.2273 198.901 52.4219 199.936 52.4219C200.925 52.4219 201.573 53.1548 201.577 54.1562H198.176ZM203.662 52.554H205.805V58H207.05V52.554H209.185V51.4545H203.662V52.554ZM210.532 58H211.772V52.554H214.623V58H215.872V51.4545H210.532V58ZM217.06 58H217.469C218.896 58 219.42 56.9432 219.523 54.7784L219.625 52.554H221.764V58H223.013V51.4545H218.445L218.33 54.3523C218.249 56.3722 218.018 56.8963 217.29 56.8963H217.055L217.06 58ZM227.533 58.1321C228.961 58.1321 229.971 57.429 230.26 56.3636L229.054 56.1463C228.824 56.7642 228.27 57.0795 227.546 57.0795C226.455 57.0795 225.722 56.3722 225.688 55.1108H230.341V54.6591C230.341 52.294 228.926 51.3693 227.444 51.3693C225.62 51.3693 224.418 52.7585 224.418 54.7699C224.418 56.8026 225.603 58.1321 227.533 58.1321ZM225.692 54.1562C225.743 53.2273 226.417 52.4219 227.452 52.4219C228.441 52.4219 229.088 53.1548 229.093 54.1562H225.692ZM233.004 56.2145V51.4545H231.755V58H233.14L236.012 53.2358V58H237.261V51.4545H235.888L233.004 56.2145ZM235.343 49.2386C235.343 49.669 235.104 50.0483 234.508 50.0483C233.903 50.0483 233.677 49.6648 233.677 49.2386H232.633C232.633 50.1974 233.362 50.858 234.508 50.858C235.663 50.858 236.391 50.1974 236.391 49.2386H235.343ZM241.731 58.1321C243.278 58.1321 244.279 57.2031 244.42 55.929H243.18C243.018 56.6364 242.468 57.054 241.739 57.054C240.661 57.054 239.967 56.1548 239.967 54.7273C239.967 53.3253 240.674 52.4432 241.739 52.4432C242.549 52.4432 243.043 52.9545 243.18 53.5682H244.42C244.283 52.2472 243.205 51.3693 241.718 51.3693C239.873 51.3693 238.68 52.7585 238.68 54.7571C238.68 56.7301 239.83 58.1321 241.731 58.1321Z" fill="#222222"/>
<defs>
<radialGradient id="paint0_radial_151_714" cx="0" cy="0" r="1" gradientUnits="userSpaceOnUse" gradientTransform="translate(30.088 37.4827) rotate(180) scale(24.2365 24.1066)">
<stop stop-color="#CEE5F5"/>
<stop offset="1" stop-color="#44A1D0"/>
</radialGradient>
<radialGradient id="paint1_radial_151_714" cx="0" cy="0" r="1" gradientUnits="userSpaceOnUse" gradientTransform="translate(24.8824 37.1539) scale(24.5214 24.1807)">
<stop stop-color="#F8DD83"/>
<stop offset="1" stop-color="#DE9222"/>
</radialGradient>
<radialGradient id="paint2_radial_151_714" cx="0" cy="0" r="1" gradientUnits="userSpaceOnUse" gradientTransform="translate(40.1671 28.605) rotate(180) scale(27.3721 27.3944)">
<stop stop-color="#DAEA73"/>
<stop offset="1" stop-color="#68B336"/>
</radialGradient>
</defs>
</svg>
