<?xml version="1.0" encoding="utf-8"?><svg xmlns="http://www.w3.org/2000/svg" xmlns:xlink="http://www.w3.org/1999/xlink"><symbol viewBox="0 0 18 18" id="account" xmlns="http://www.w3.org/2000/svg"><path d="M9 1.125a3.94 3.94 0 013.938 3.938A3.94 3.94 0 019 9a3.94 3.94 0 01-3.938-3.938A3.94 3.94 0 019 1.126zm4.5 11.25a3.38 3.38 0 013.375 3.375v1.125H1.125V15.75A3.38 3.38 0 014.5 12.375c2.988 0 2.366.563 4.5.563 2.141 0 1.508-.563 4.5-.563zM9 0a5.064 5.064 0 00-5.063 5.063A5.064 5.064 0 009 10.125a5.064 5.064 0 005.063-5.063A5.064 5.064 0 009 0zm4.5 11.25c-3.248 0-2.496.563-4.5.563-1.997 0-1.255-.563-4.5-.563a4.5 4.5 0 00-4.5 4.5v1.125C0 17.497.503 18 1.125 18h15.75c.622 0 1.125-.503 1.125-1.125V15.75a4.5 4.5 0 00-4.5-4.5z"/></symbol><symbol viewBox="0 0 17.44 17.44" id="clock" xmlns="http://www.w3.org/2000/svg"><path d="M9 .281A8.717 8.717 0 00.281 9 8.717 8.717 0 009 17.719 8.717 8.717 0 0017.719 9 8.717 8.717 0 009 .281zM16.594 9c0 4.173-3.379 7.594-7.594 7.594-4.173 0-7.594-3.379-7.594-7.594 0-4.173 3.379-7.594 7.594-7.594 4.173 0 7.594 3.379 7.594 7.594zm-5.235 3.104L8.504 10.03a.425.425 0 01-.172-.34V4.077c0-.232.19-.422.422-.422h.492c.232 0 .422.19.422.422V9.22l2.479 1.804c.19.137.228.4.09.59l-.287.398a.425.425 0 01-.591.091z"/></symbol><symbol viewBox="0 0 15 21" id="flame" xmlns="http://www.w3.org/2000/svg"><path d="M14.48 8.26a14.082 14.082 0 00-2.502-4.218C10.118 1.89 7.674.5 5.75.5a.75.75 0 00-.726.938c.65 2.484-.697 4.55-2.124 6.736C1.72 9.986.5 11.856.5 14c0 4.135 3.365 7.5 7.5 7.5s7.5-3.365 7.5-7.5c0-2.03-.343-3.96-1.02-5.74zM9.514 18.627c-.484.516-1.09.624-1.515.624-.424 0-1.031-.108-1.515-.624C6 18.11 5.75 17.292 5.75 16.25c0-1.178.413-2.076.813-2.943.232-.503.469-1.016.61-1.564a.375.375 0 01.585-.211c.428.331.81.72 1.133 1.155.851 1.126 1.359 2.458 1.359 3.563 0 1.043-.254 1.864-.735 2.376z"/></symbol><symbol viewBox="0 0 18 13.5" id="mail" xmlns="http://www.w3.org/2000/svg"><path d="M16.313.25H1.688C.755.25 0 1.006 0 1.938v10.124c0 .932.756 1.688 1.688 1.688h14.624c.932 0 1.688-.756 1.688-1.688V1.938C18 1.006 17.244.25 16.312.25zM1.688 1.375h14.624c.31 0 .563.253.563.563v1.455c-.77.65-1.87 1.547-5.294 4.264C10.986 8.13 9.816 9.264 9 9.25c-.816.014-1.99-1.121-2.58-1.593C2.995 4.94 1.895 4.043 1.125 3.393V1.938c0-.31.253-.563.563-.563zm14.624 11.25H1.688a.564.564 0 01-.562-.563V4.856a405.38 405.38 0 004.595 3.681c.72.577 1.993 1.846 3.28 1.839 1.28.01 2.542-1.248 3.28-1.839a416.998 416.998 0 004.595-3.68v7.207a.564.564 0 01-.563.562z"/></symbol><symbol viewBox="0 0 18.01 15.75" id="phone" xmlns="http://www.w3.org/2000/svg"><path d="M9 7.438a2.813 2.813 0 100 5.625 2.813 2.813 0 000-5.626zm0 4.5a1.688 1.688 0 110-3.376 1.688 1.688 0 010 3.376zm4.023-6.18a2.25 2.25 0 00-1.954-1.133H6.931a2.25 2.25 0 00-1.954 1.134L1.273 12.24c-.097.17-.148.362-.148.558v1.951a1.125 1.125 0 001.125 1.125h13.5a1.125 1.125 0 001.125-1.125v-1.951c0-.196-.05-.388-.148-.558l-3.704-6.482zm2.727 8.992H2.25v-1.951l3.704-6.482a1.127 1.127 0 01.977-.567h4.138a1.128 1.128 0 01.977.567l3.704 6.482v1.951zm1.838-11.595A13.805 13.805 0 009 .125a13.805 13.805 0 00-8.588 3.03A1.13 1.13 0 000 4.038v2.274a.563.563 0 00.563.563h2.464a.562.562 0 00.503-.311l.97-2.22C5.903 3.736 7.426 3.5 9 3.5c1.574 0 3.097.236 4.5.844l.97 2.22a.562.562 0 00.503.311h2.464A.563.563 0 0018 6.312V4.038a1.132 1.132 0 00-.412-.883zm-.713 2.595h-1.533l-.811-1.857-.176-.406-.407-.175c-1.456-.63-3.074-.937-4.948-.937-1.874 0-3.492.306-4.947.936l-.407.176-.175.406-.813 1.857H1.123l-.006-1.717A12.646 12.646 0 019 1.25a12.58 12.58 0 017.875 2.788V5.75z"/></symbol></svg>